.
 
http://www.scenetime.com    -  Hottest private tracker on the net. !!!

New release on http://www.scenetime.com

        Seed back for speed


...................................NFO:.................................................[align=center]
        [/align]


[size=3][color=#009999]



   Alvin and the Chipmunks: Chipwrecked 2011.R5.CAM.AUDIO.AC3 XVID - Xtreme Encode



[/color][/size]


[size=3]
[color=#CC9933]General


Complete name                    : Alvin and the Chipmunks Chipwrecked 2011.R5.CAM.AUDIO.AC3 XVID - Xtreme Encode.avi
Format                           : AVI
Format/Info                      : Audio Video Interleave
Format profile                   : OpenDML
Format settings                  : rec
File size                        : 1.30 GiB
Duration                         : 1h 23mn
Overall bit rate                 : 2 219 Kbps[/color][/size]




[size=3][color=#669900]
Video


ID                               : 0
Format                           : MPEG-4 Visual
Format profile                   : Advanced Simple@L5
Format settings, BVOP            : 2
Format settings, QPel            : No
Format settings, GMC             : No warppoints
Format settings, Matrix          : Default (H.263)
Muxing mode                      : Packed bitstream
Codec ID                         : XVID
Codec ID/Hint                    : XviD
Duration                         : 1h 23mn
Bit rate                         : 1 573 Kbps
Width                            : 720 pixels
Height                           : 400 pixels
Display aspect ratio             : 16:9
Frame rate                       : 25.000 fps
Color space                      : YUV
Chroma subsampling               : 4:2:0
Bit depth                        : 8 bits
Scan type                        : Progressive
Compression mode                 : Lossy
Bits/(Pixel*Frame)               : 0.218
Stream size                      : 941 MiB (71%)[/color][/size]





[size=3][color=#009900]Audio


ID                               : 1
Format                           : AC-3
Format/Info                      : Audio Coding 3
Mode extension                   : CM (complete main)
Codec ID                         : 2000
Duration                         : 1h 23mn
Bit rate mode                    : Constant
Bit rate                         : 640 Kbps
Channel(s)                       : 2 channels
Channel positions                : Front: L R
Sampling rate                    : 44.1 KHz
Bit depth                        : 16 bits
Compression mode                 : Lossy
Stream size                      : 383 MiB (29%)
Alignment                        : Aligned on interleaves
Interleave, duration             : 70 ms (1.74 video frames)
Interleave, preload duration     : 208 ms[/color][/size]





[size=3][color=#6699FF]
SOURCE
Video : Russian R5 DVDR
Audio : R5.CAM.AUDiO.XviD-REFiLL



JUST A LITTLE MESS WITH THIS ADDES BIT OF CONTRAS 
RESIZED BIT TWEAKED BIT SHARPEN in LITTLE CROP N 
SAT HUE and few othere things :)[/color][/size]




[size=3][color=#0099CC]PLOT

Playing around while aboard a cruise ship, 
the Chipmunks and Chipettes accidentally go overboard and 
end up marooned in a tropical paradise. 
They discover their new turf is not as deserted as it seems
 


 [/color][/size]


[size=3][color=#CC6600]Genres: Animation | Comedy | Family | Fantasy | Music 


Director: Mike Mitchell

Writers: Jonathan Aibel, Glenn Berger

Stars: Justin Long, Matthew Gray Gubler and Jesse McCartney [/color][/size]


[size=3][color=#0033FF]IMDB: http://www.imdb.com/title/tt1615918/[/color][/size]



[size=3][color=#996600]HOPE U ALL LIKE THIS IF SO PLS REP :)[/color][/size]


[size=3][color=#CC0000]
SCREENS:





[/color][/size]


[size=3][b][font=Times New Roman][color=#3366CC]
      GREETS:

IMAGiNE / ELEKTRI4KA / FLAWL3SS  
ViSiON / CRYS / BMB / MiSTERE / 26K
AMB / FYA / Jamie111 / VISUALiSE  
ILLUMINATI / Rx / REFiLL / BHRG
TO MY FRIENDS  AND ALL OTHER GROUPS  :)[/color][/font][/b][/size]